<?xml version="1.0" encoding="utf-8"?>
<!-- Generator: Adobe Illustrator 19.1.1, SVG Export Plug-In . SVG Version: 6.00 Build 0)  -->
<svg version="1.1" id="Layer_1" xmlns="http://www.w3.org/2000/svg" xmlns:xlink="http://www.w3.org/1999/xlink" x="0px" y="0px"
	 viewBox="0 0 37.3 38.7" style="enable-background:new 0 0 37.3 38.7;" xml:space="preserve">
<style type="text/css">
	.st0{fill:#FFFFFF;}
</style>
<path class="st0" d="M18.6,2c-9.4,0-17,7.6-17,17c0,9.4,7.6,17,17,17c9.4,0,17-7.6,17-17C35.7,9.6,28,2,18.6,2z M13.9,26.1h-3.3
	V15.5h3.3V26.1z M12.1,14.2L12.1,14.2c-1.2,0-2-0.8-2-1.8c0-1,0.8-1.8,2-1.8c1.2,0,2,0.8,2,1.8C14.2,13.4,13.4,14.2,12.1,14.2z
	 M27.1,26.1h-3.8v-5.5c0-1.4-0.6-2.4-1.9-2.4c-1,0-1.5,0.7-1.8,1.3c-0.1,0.2-0.1,0.5-0.1,0.9v5.7h-3.7c0,0,0-9.7,0-10.6h3.7v1.7
	c0.2-0.7,1.4-1.8,3.3-1.8c2.4,0,4.2,1.5,4.2,4.8V26.1z"/>
</svg>
