<?xml version="1.0" encoding="utf-8"?>
<!-- Generator: Adobe Illustrator 19.1.1, SVG Export Plug-In . SVG Version: 6.00 Build 0)  -->
<svg version="1.1" id="Layer_1" xmlns="http://www.w3.org/2000/svg" xmlns:xlink="http://www.w3.org/1999/xlink" x="0px" y="0px"
	 viewBox="0 0 175 52" style="enable-background:new 0 0 175 52;" xml:space="preserve">
<style type="text/css">
	.Arched_x0020_Green{fill:url(#SVGID_1_);stroke:#FFFFFF;stroke-width:0.25;stroke-miterlimit:1;}
	.st0{fill-rule:evenodd;clip-rule:evenodd;fill:#0063A6;}
	.st1{fill:#0063A6;}
	.st2{fill:#28A34C;}
	.st3{fill-rule:evenodd;clip-rule:evenodd;fill:#28A34C;}
</style>
<linearGradient id="SVGID_1_" gradientUnits="userSpaceOnUse" x1="-224.0079" y1="393.2813" x2="-223.3008" y2="392.5742">
	<stop  offset="0" style="stop-color:#20AC4B"/>
	<stop  offset="0.9831" style="stop-color:#19361A"/>
</linearGradient>
<path class="st0" d="M81.5,24.4l4.8,9.2h2.6L75.3,7.5h-2.4L59.2,33.6h2.6l4.7-9.2H81.5L81.5,24.4z M67.3,22.9l4.8-9.3
	c0.8-1.5,1.4-2.7,1.9-4h0.1c0.5,1.3,1,2.4,1.9,4.1l4.8,9.2H67.3L67.3,22.9z"/>
<path class="st1" d="M94.7,33.6V16.6h7.1V15h-7.1v-0.9c0-3.8,1.1-7.1,6-7.1c1.6,0,2.6,0.3,3.4,0.6l0.8-1.5c-0.8-0.3-2.3-0.7-4-0.7
	c-2.2,0-4.2,0.6-5.7,1.7c-2.1,1.5-2.9,3.9-2.9,7V15h-3.7v1.5h3.7v17.1H94.7L94.7,33.6z"/>
<path class="st1" d="M108.1,11.5V15h-4.4v1.5h4.4v11.6c0,1.7,0.4,3.4,1.6,4.5c1,0.9,2.6,1.4,4.5,1.4c1.6,0,2.9-0.2,3.7-0.5l-0.3-1.5
	c-0.7,0.2-1.7,0.3-3.2,0.3c-3,0-3.9-1.7-3.9-4V16.6h7.6V15h-7.6v-4.1L108.1,11.5L108.1,11.5z"/>
<path class="st0" d="M130.1,34.1c5.9,0,12.9-3,12.9-10c0-5.3-4.9-9.5-12.6-9.5c-6.7,0-12.8,3.8-12.8,9.9
	C117.6,30,122.8,34.1,130.1,34.1L130.1,34.1L130.1,34.1z M130.1,32.5c-5.2,0-10.1-2.9-10.1-8.1c0-4.3,3.5-8.3,10.3-8.3
	c7.1,0,10.2,4.6,10.2,8.1C140.5,29.5,135.4,32.5,130.1,32.5L130.1,32.5L130.1,32.5z"/>
<path class="st1" d="M146,33.6h2.5V22.3c0-0.6,0.2-1.2,0.4-1.7c1.1-2.4,4.3-4.4,8.2-4.4c5.5,0,7.6,3.2,7.6,6.8v10.6h2.5V23
	c0-7.7-7.2-8.5-9.4-8.5c-4.4,0-7.8,1.9-9.3,4.2h-0.1l-0.2-3.7h-2.3c0.2,1.5,0.2,3,0.2,4.5V33.6L146,33.6z"/>
<g>
	<rect x="58.2" y="38" class="st1" width="109" height="2.1"/>
</g>
<g>
	<path class="st2" d="M62.7,46.3c-0.3,0.1-0.8,0.2-1.3,0.2c-1.4,0-2.2-0.6-2.2-1.5c0-1,0.9-1.5,2.2-1.5c0.5,0,1,0.1,1.3,0.2l0.2-0.6
		c-0.2-0.1-0.8-0.2-1.6-0.2c-2,0-3.3,0.9-3.3,2.2c0,1.3,1.2,2.1,3.2,2.1c0.8,0,1.4-0.1,1.7-0.2L62.7,46.3L62.7,46.3z"/>
	<polygon class="st2" points="73.5,42.9 73.5,47 74.6,47 74.6,45.2 77.4,45.2 77.4,47 78.4,47 78.4,42.9 77.4,42.9 77.4,44.5 
		74.6,44.5 74.6,42.9 73.5,42.9 	"/>
	<polygon class="st2" points="92.9,44.6 90.5,44.6 90.5,43.5 93,43.5 93,42.9 89.4,42.9 89.4,47 93.2,47 93.2,46.4 90.5,46.4 
		90.5,45.2 92.9,45.2 92.9,44.6 	"/>
	<path class="st2" d="M109.2,47h1.1l-0.3-4.1h-1.5l-0.9,1.7c-0.2,0.5-0.5,1-0.6,1.4h0c-0.1-0.5-0.3-1-0.6-1.4l-0.8-1.7h-1.5
		l-0.4,4.1h1l0.1-1.7c0-0.6,0.1-1.3,0.1-1.9h0c0.2,0.5,0.4,1.1,0.6,1.7l0.8,1.8h0.9l0.9-1.8c0.3-0.6,0.5-1.1,0.8-1.7h0
		c0,0.6,0,1.3,0.1,1.8L109.2,47L109.2,47z"/>
	<polygon class="st2" points="121.1,42.9 121.1,47 122.1,47 122.1,42.9 121.1,42.9 	"/>
	<path class="st2" d="M137.5,46.3c-0.3,0.1-0.8,0.2-1.3,0.2c-1.4,0-2.2-0.6-2.2-1.5c0-1,0.9-1.5,2.2-1.5c0.5,0,1,0.1,1.3,0.2
		l0.2-0.6c-0.2-0.1-0.8-0.2-1.6-0.2c-2,0-3.3,0.9-3.3,2.2c0,1.3,1.2,2.1,3.2,2.1c0.8,0,1.4-0.1,1.7-0.2L137.5,46.3L137.5,46.3z"/>
	<path class="st3" d="M151.6,45.8l0.6,1.2h1.2l-2.1-4.1h-1.4l-2,4.1h1.1l0.5-1.2H151.6L151.6,45.8z M149.8,45.3l0.5-1.1
		c0.1-0.2,0.2-0.5,0.3-0.7h0c0.1,0.2,0.2,0.5,0.3,0.7l0.5,1H149.8L149.8,45.3z"/>
	<polygon class="st2" points="164,47 167.6,47 167.6,46.4 165,46.4 165,42.9 164,42.9 164,47 	"/>
</g>
<path class="st1" d="M3.5,31.4c0-13.8,11.2-25,25-25c12.5,0,22.9,9.2,24.7,21.2L36.7,10.9L5.8,41.9C4.3,38.7,3.5,35.1,3.5,31.4
	L3.5,31.4z"/>
<polygon class="st2" points="53.5,33.8 19.9,33.8 36.7,17 53.5,33.8 "/>
<g>
	<path class="st1" d="M168.9,14.6c1.1,0,2,0.9,2,1.9c0,1.1-0.9,2-2,2c-1.1,0-2-0.9-2-2C166.9,15.4,167.8,14.6,168.9,14.6L168.9,14.6
		z M168.9,14.9c-0.9,0-1.5,0.7-1.5,1.6c0,0.9,0.7,1.6,1.6,1.6c0.9,0,1.5-0.7,1.5-1.6C170.4,15.6,169.8,14.9,168.9,14.9L168.9,14.9z
		 M168.6,17.6h-0.4v-2c0.2,0,0.4-0.1,0.7-0.1c0.3,0,0.5,0.1,0.6,0.2c0.1,0.1,0.2,0.2,0.2,0.4c0,0.3-0.2,0.4-0.4,0.5v0
		c0.2,0.1,0.3,0.2,0.3,0.5c0.1,0.3,0.1,0.4,0.1,0.5h-0.4c-0.1-0.1-0.1-0.3-0.2-0.5c0-0.2-0.2-0.3-0.5-0.3h-0.2V17.6z M168.6,16.4
		h0.3c0.3,0,0.5-0.1,0.5-0.3c0-0.2-0.1-0.3-0.5-0.3c-0.1,0-0.2,0-0.3,0V16.4z"/>
</g>
</svg>
