<?xml version="1.0" encoding="utf-8"?>
<!-- Generator: Adobe Illustrator 19.1.1, SVG Export Plug-In . SVG Version: 6.00 Build 0)  -->
<svg version="1.1" id="Layer_1" xmlns="http://www.w3.org/2000/svg" xmlns:xlink="http://www.w3.org/1999/xlink" x="0px" y="0px"
	 viewBox="0 0 231 99" style="enable-background:new 0 0 231 99;" xml:space="preserve">
<style type="text/css">
	.Arched_x0020_Green{fill:url(#SVGID_1_);stroke:#FFFFFF;stroke-width:0.25;stroke-miterlimit:1;}
	.st0{fill-rule:evenodd;clip-rule:evenodd;fill:#0063A6;}
	.st1{fill:#0063A6;}
	.st2{fill:#28A34C;}
	.st3{fill-rule:evenodd;clip-rule:evenodd;fill:#28A34C;}
</style>
<linearGradient id="SVGID_1_" gradientUnits="userSpaceOnUse" x1="-227" y1="394.2813" x2="-226.2929" y2="393.5742">
	<stop  offset="0" style="stop-color:#20AC4B"/>
	<stop  offset="0.9831" style="stop-color:#19361A"/>
</linearGradient>
<path class="st0" d="M107.6,28.8l6.4,12.2h3.4L99.2,6.2H96L77.8,41h3.4l6.2-12.2H107.6L107.6,28.8z M88.6,26.7L95,14.3
	c1.1-2.1,1.8-3.6,2.5-5.4h0.1c0.7,1.7,1.3,3.2,2.5,5.5l6.4,12.2H88.6L88.6,26.7z"/>
<path class="st1" d="M125.2,41V18.3h9.5v-2h-9.5V15c0-5,1.4-9.4,8-9.4c2.1,0,3.5,0.4,4.5,0.8l1.1-2c-1-0.5-3-0.9-5.3-0.9
	c-2.9,0-5.6,0.8-7.6,2.2c-2.7,2-3.9,5.2-3.9,9.4v1.2H117v2h4.9V41H125.2L125.2,41z"/>
<path class="st1" d="M143,11.6v4.7h-5.9v2h5.9v15.5c0,2.3,0.5,4.6,2.1,6c1.3,1.2,3.4,1.9,6,1.9c2.1,0,3.8-0.3,5-0.7l-0.4-2
	c-0.9,0.3-2.3,0.5-4.2,0.5c-4,0-5.2-2.3-5.2-5.4V18.3h10.2v-2h-10.2v-5.5L143,11.6L143,11.6z"/>
<path class="st0" d="M172.3,41.6c7.8,0,17.2-4,17.2-13.3c0-7.1-6.5-12.7-16.8-12.7c-9,0-17,5-17,13.3
	C155.7,36.2,162.6,41.6,172.3,41.6L172.3,41.6L172.3,41.6z M172.3,39.6c-6.9,0-13.4-3.9-13.4-10.8c0-5.8,4.6-11,13.7-11
	c9.5,0,13.5,6.1,13.5,10.8C186.2,35.6,179.4,39.6,172.3,39.6L172.3,39.6L172.3,39.6z"/>
<path class="st1" d="M193.6,41h3.3V25.9c0-0.8,0.3-1.7,0.5-2.2c1.5-3.1,5.8-5.9,10.9-5.9c7.4,0,10.1,4.3,10.1,9.1V41h3.3V26.9
	c0-10.3-9.6-11.3-12.5-11.3c-5.9,0-10.5,2.5-12.4,5.6h-0.1l-0.3-5h-3.1c0.2,2,0.3,4,0.3,6V41L193.6,41z"/>
<g>
	<rect x="76.5" y="46.9" class="st1" width="145.4" height="2.9"/>
</g>
<g>
	<path class="st2" d="M82.4,57.9c-0.4,0.1-1.1,0.2-1.8,0.2c-1.9,0-2.9-0.9-2.9-2c0-1.3,1.2-2,3-2c0.7,0,1.3,0.1,1.7,0.2l0.3-0.8
		c-0.3-0.1-1.1-0.3-2.1-0.3c-2.6,0-4.4,1.2-4.4,2.9c0,1.7,1.6,2.8,4.2,2.8c1.1,0,1.9-0.2,2.2-0.3L82.4,57.9L82.4,57.9z"/>
	<polygon class="st2" points="96.9,53.4 96.9,58.9 98.4,58.9 98.4,56.5 102,56.5 102,58.9 103.4,58.9 103.4,53.4 102,53.4 102,55.6 
		98.4,55.6 98.4,53.4 96.9,53.4 	"/>
	<polygon class="st2" points="122.7,55.6 119.5,55.6 119.5,54.2 122.9,54.2 122.9,53.4 118.1,53.4 118.1,58.9 123.1,58.9 
		123.1,58.1 119.5,58.1 119.5,56.5 122.7,56.5 122.7,55.6 	"/>
	<path class="st2" d="M144.4,58.9h1.4l-0.4-5.5h-2l-1.2,2.2c-0.3,0.6-0.6,1.3-0.8,1.9h0c-0.2-0.6-0.5-1.3-0.7-1.9l-1.1-2.2h-2
		l-0.5,5.5h1.4l0.2-2.3c0.1-0.8,0.1-1.7,0.1-2.5h0c0.2,0.7,0.5,1.5,0.8,2.3l1.1,2.4h1.1l1.2-2.4c0.4-0.8,0.7-1.5,1-2.2h0
		c0,0.8,0.1,1.7,0.1,2.4L144.4,58.9L144.4,58.9z"/>
	<polygon class="st2" points="160.3,53.4 160.3,58.9 161.7,58.9 161.7,53.4 160.3,53.4 	"/>
	<path class="st2" d="M182.2,57.9c-0.4,0.1-1.1,0.2-1.8,0.2c-1.9,0-2.9-0.9-2.9-2c0-1.3,1.2-2,3-2c0.7,0,1.3,0.1,1.7,0.2l0.3-0.8
		c-0.3-0.1-1.1-0.3-2.1-0.3c-2.6,0-4.4,1.2-4.4,2.9c0,1.7,1.6,2.8,4.2,2.8c1.1,0,1.9-0.2,2.2-0.3L182.2,57.9L182.2,57.9z"/>
	<path class="st3" d="M201.1,57.3l0.8,1.6h1.6l-2.7-5.5h-1.9l-2.7,5.5h1.5l0.7-1.6H201.1L201.1,57.3z M198.6,56.5l0.7-1.4
		c0.1-0.3,0.3-0.7,0.4-1h0c0.1,0.3,0.3,0.6,0.4,1l0.7,1.4H198.6L198.6,56.5z"/>
	<polygon class="st2" points="217.5,58.9 222.4,58.9 222.4,58 218.9,58 218.9,53.4 217.5,53.4 217.5,58.9 	"/>
</g>
<path class="st1" d="M3.5,38c0-18.4,14.9-33.4,33.4-33.4c16.7,0,30.5,12.2,33,28.2L47.8,10.8L6.6,52C4.6,47.7,3.5,43,3.5,38L3.5,38z
	"/>
<polygon class="st2" points="70.1,41.2 25.4,41.3 47.8,18.9 70.1,41.2 "/>
<g>
	<path class="st1" d="M224.1,15.6c1.5,0,2.6,1.1,2.6,2.6c0,1.5-1.2,2.6-2.6,2.6c-1.5,0-2.7-1.1-2.7-2.6
		C221.4,16.7,222.6,15.6,224.1,15.6L224.1,15.6z M224.1,16c-1.2,0-2.1,1-2.1,2.1c0,1.2,0.9,2.1,2.1,2.1c1.2,0,2-0.9,2-2.1
		C226.1,17,225.3,16,224.1,16L224.1,16z M223.6,19.6h-0.5v-2.7c0.3,0,0.6-0.1,0.9-0.1c0.5,0,0.7,0.1,0.9,0.2
		c0.2,0.1,0.3,0.3,0.3,0.6c0,0.3-0.2,0.6-0.5,0.7v0c0.2,0.1,0.4,0.3,0.5,0.7c0.1,0.4,0.1,0.6,0.2,0.7h-0.5c-0.1-0.1-0.1-0.3-0.2-0.7
		c-0.1-0.3-0.2-0.4-0.6-0.4h-0.3V19.6z M223.6,18.1h0.3c0.4,0,0.7-0.1,0.7-0.4c0-0.3-0.2-0.4-0.7-0.4c-0.2,0-0.3,0-0.4,0V18.1z"/>
</g>
<path class="st1" d="M5.7,69.3c-0.3,0.1-0.4,0.2-0.7,0.1c-0.3-0.1-0.4-0.8-0.4-0.9c0.1-0.3,0.3-0.5,0.6-0.6c1-0.5,2.7-1.2,4.7-1.8
	c3.5-1,6.3-0.9,7.7-0.9c0.7,0,4.8,0.2,4.7,2.6c-0.1,2.2-2.9,5.1-6.3,7.1c-3.5,2.1-5.4,2.2-7.5,2.4c-0.2,2.9,0.1,5.5,0.1,5.7
	c0.1,0.7,0.3,1.9,1.1,1.9c0.2,0,0.1,0,0.4,0c0.3,0,0.5,0.1,0.5,0.3c0,0.5,0,0.9-1.2,0.9c-2-0.1-2.3-1.9-2.5-3.5
	c-0.2-1.4-0.1-4.3-0.1-5.8c0.1-2.9,0.6-5.8,0.9-8.7C7.6,68.1,5.9,69.2,5.7,69.3z M15.2,74c1.7-1.1,5-3.9,5.1-5.9
	c0-1.1-0.6-1.7-3.1-1.8c-2-0.1-5.6,0.6-7.6,1.1c-0.9,3.2-1.2,7.5-1.2,8.7C10.1,76,12.2,75.9,15.2,74z"/>
<path class="st1" d="M23.5,72.5c0-0.6,1.1-0.8,1.4-0.8c0.5,0,0.5,0.3,0.5,0.6c0,3.6,1.1,10,2.4,11.5c0.1,0.1,1.1,0.7,1.1,0.8
	s-0.2,0.6-0.7,0.6c-1.6,0-2.2-1.6-2.4-2.2c-0.3-0.7-1-2.8-1.4-5.5c-1,1.5-5.6,7.5-7.6,7.5c-0.3,0-1.3-0.2-1.3-1
	c0-2.8,5.2-10.1,8-10.1c0.1,0,0.2,0,0.3,0.1C23.8,73.7,23.5,72.6,23.5,72.5z M23.2,75.1c-1.9,0-6.3,6.7-6.3,8.2c0,0.1,0,0.3,0.2,0.3
	c1,0,6.8-6.8,6.8-7.8C23.9,75.4,23.7,75.1,23.2,75.1z"/>
<path class="st1" d="M38.4,77.1c-0.3,0-0.3,0-0.8-0.9c-0.7-1.2-2.7-1.8-3.4-1.8c-0.1,0-0.5,0-0.5,0.3c0,0.5,2.4,3.8,3,4.6
	c2.3,2.9,2.7,3.4,2.7,4.4c0,1.1-1,2-2.8,2c-3.5,0-7.2-2.4-7.2-4.4c0-0.9,0.7-1.3,1.2-1.3c0.3,0,0.4,0.2,0.4,0.3c0,0.2-0.3,0.9-0.3,1
	c0,1.6,3.9,3.3,5.9,3.3c0.9,0,1.2-0.4,1.2-0.7c0-0.6-1.8-3-2.5-3.8c-2.9-3.7-3.6-4.6-3.6-5.6c0-0.7,0.4-1.1,1.6-1.1
	c2.8,0,5.8,1.7,6,2.9C39.5,76.7,38.7,77.1,38.4,77.1z"/>
<path class="st1" d="M49.6,77.1c-0.3,0-0.3,0-0.8-0.9c-0.7-1.2-2.7-1.8-3.3-1.8c-0.1,0-0.5,0-0.5,0.3c0,0.5,2.4,3.8,3,4.6
	c2.3,2.9,2.7,3.4,2.7,4.3c0,1.1-1,1.9-2.8,1.9c-3.4,0-7.1-2.4-7.1-4.4c0-0.9,0.7-1.3,1.2-1.3c0.3,0,0.4,0.2,0.4,0.3
	c0,0.2-0.3,0.9-0.3,1c0,1.6,3.8,3.2,5.8,3.2c0.9,0,1.2-0.4,1.2-0.6c0-0.6-1.8-3-2.5-3.8c-2.9-3.6-3.6-4.6-3.6-5.6
	c0-0.6,0.4-1.1,1.6-1.1c2.8,0,5.7,1.7,5.9,2.9C50.6,76.8,49.9,77.1,49.6,77.1z"/>
<path class="st1" d="M56.4,84.3c0.8,0.1,0.8,0.1,0.8,0.4c0,0.5-0.9,0.8-1.4,0.8c-1.4,0-1.7-1.5-1.8-2.2c-0.3-1.5-0.5-4.2-0.5-5.7
	c0-0.7,0-2.9,0.5-3.3c0.2-0.2,0.9-0.6,1.4-0.6c0.3,0,0.5,0.2,0.5,0.4c0,0.2-0.3,1.1-0.4,1.2c-0.2,0.8-0.4,1.9-0.4,3.9
	C55,80.4,55.1,84.1,56.4,84.3z M55.6,70.3c0,0.1,0.1,0.4,0.1,0.5c0,0.2-0.2,0.4-0.7,0.4c-0.7,0-0.9-0.2-0.9-3.2
	c0-0.5,0.4-0.9,1.5-0.9c0.2,0,0.4,0.1,0.4,0.3c0,0.3-0.2,0.7-0.3,1.1c-0.1,0.5-0.1,0.7-0.1,1.1C55.5,69.7,55.5,70,55.6,70.3z"/>
<path class="st1" d="M64.2,73.6c2.1,0,4.5,1.9,4.5,4.9c0,2.7-2.3,6.5-6.1,6.5c-3,0-4.6-2.7-4.6-5.4c0-3.3,2.3-6,4.3-6
	c0.4,0,0.6,0.2,0.7,0.3C63.1,73.8,63.6,73.6,64.2,73.6z M62.4,75.6c-0.1,0-0.2-0.1-0.3-0.1c-0.3-0.3-0.4-0.3-0.7-0.3
	c-0.6,0-1.9,1.6-1.9,3.9c0,3.2,2,4.7,3.6,4.7c1.8,0,4-1.9,4-4.6c0-2.5-1.6-4.7-3.9-4.4C63.2,75.2,62.8,75.6,62.4,75.6z"/>
<path class="st1" d="M76.1,76c1.5-2.5,1.8-3.1,2.9-3.1c0.3,0,0.5,0.2,0.5,0.4c0,0.3-0.3,1.2-0.4,1.4c-0.2,0.9-0.3,2-0.3,2.8
	c0,0.6,0.1,6.5,2.5,6.5c0.4,0,0.8-0.2,1.1-0.4c0.4-0.3,0.5-0.3,0.6-0.3c0.3,0,0.4,0.2,0.4,0.4c0,0.6-1.3,1.2-2.4,1.2
	c-3.3,0-3.8-4.6-3.8-7.6c0-0.5,0-0.7,0.1-1.2c-0.7,1.2-3.4,5.7-4.6,8.1c-0.6,1.1-0.6,1.2-0.9,1.2c-0.1,0-1.2-0.4-1.2-0.8
	c0-0.7,0.8-9.6,1-9.9c0.2-0.3,1.5-0.8,1.6-0.8c0.1,0,0.3,0.1,0.3,0.4c0,0.2-0.1,0.4-0.4,2.1c-0.6,3.4-0.9,5.1-1,6.3
	C73.9,79.6,74.5,78.5,76.1,76z"/>
<path class="st1" d="M186.3,84.3c0.8,0.1,0.8,0.1,0.8,0.4c0,0.5-0.9,0.8-1.4,0.8c-1.4,0-1.7-1.5-1.8-2.2c-0.3-1.5-0.4-4.2-0.4-5.7
	c0-0.7,0-2.9,0.4-3.3c0.2-0.2,0.9-0.6,1.4-0.6c0.3,0,0.5,0.2,0.5,0.4c0,0.2-0.3,1.1-0.4,1.2c-0.2,0.8-0.4,1.9-0.4,3.9
	C184.9,80.4,185,84.1,186.3,84.3z M185.5,70.3c0,0.1,0.1,0.4,0.1,0.5c0,0.2-0.2,0.4-0.7,0.4c-0.8,0-1-0.2-1-3.2
	c0-0.5,0.3-0.9,1.5-0.9c0.2,0,0.4,0.1,0.4,0.3c0,0.3-0.2,0.7-0.3,1.1c-0.1,0.5-0.1,0.7-0.1,1.1C185.4,69.7,185.4,70,185.5,70.3z"/>
<path class="st1" d="M194.1,73.6c2.1,0,4.5,1.9,4.5,4.9c0,2.7-2.3,6.5-6.1,6.5c-3,0-4.6-2.7-4.6-5.4c0-3.3,2.3-6,4.3-6
	c0.4,0,0.6,0.2,0.7,0.3C193,73.8,193.5,73.6,194.1,73.6z M192.3,75.6c-0.1,0-0.2-0.1-0.3-0.1c-0.3-0.3-0.4-0.3-0.7-0.3
	c-0.6,0-1.9,1.6-1.9,3.9c0,3.2,2,4.7,3.6,4.7c1.8,0,4-1.9,4-4.6c0-2.5-1.6-4.7-3.9-4.4C193.1,75.2,192.7,75.6,192.3,75.6z"/>
<path class="st1" d="M99.6,72.5c0.1,0,0.6,0,0.6,0.2c0,0.1-0.1,0.5-0.2,0.6C99.9,73.4,99,74,98.7,74c-0.1,0-0.6-0.2-0.7-0.2
	c-0.5,0-2.3,0.4-3.8,1.2c0.1,3.6,0.3,8.8,0.8,12c0.7,4.3,1.9,5,2.6,5c0.2,0,0.9-0.3,1-0.3c0.2,0,0.4,0.1,0.4,0.3
	c0,0.3-0.6,0.8-1.5,0.8c-3.1,0-3.9-5.3-4.2-6.6c-0.6-3.7-0.7-9.5-0.7-10.6c-0.4,0.2-2.7,1.5-2.8,1.5c-0.3,0-0.7-0.4-0.7-0.6
	c0-0.3,0.1-0.3,3.5-2.1c0-2.6,0-5.4,1.1-7.7c0.4-0.9,1.2-2.3,2.9-2.3c0.2,0,1,0.1,1,0.7c0,0.7-0.6,1.2-0.8,1.2
	c-0.1,0-0.4-0.2-0.5-0.2c-0.6,0-2.1,1.7-2.1,7.7C95.8,73.1,98.1,72.5,99.6,72.5z"/>
<path class="st1" d="M104.7,73.5c1.9,0,4.2,1.9,4.2,5c0,2.8-2.1,6.7-5.6,6.7c-2.8,0-4.2-2.7-4.2-5.5c0-3.4,2.1-6.1,3.9-6.1
	c0.4,0,0.5,0.2,0.7,0.3C103.7,73.8,104.1,73.5,104.7,73.5z M103,75.6c-0.1,0-0.2-0.1-0.3-0.1c-0.3-0.3-0.4-0.4-0.6-0.4
	c-0.6,0-1.8,1.6-1.8,4c0,3.2,1.8,4.8,3.3,4.8c1.7,0,3.7-2,3.7-4.7c0-2.6-1.4-4.8-3.6-4.5C103.7,75.1,103.4,75.6,103,75.6z"/>
<path class="st1" d="M116.4,74.5c0.9-1.1,2.1-2,3.1-2c1,0,1.5,0.8,1.5,1.5c0,0.7-0.6,0.8-0.8,0.8c-0.6,0-0.8-0.4-0.9-0.7
	c-0.1-0.4-0.1-0.4-0.3-0.4c-0.2,0-1.1,0.5-2.3,2.2c-1.6,2.3-1.8,4.8-1.8,5.1c0,0.4,0.1,1.5,0.4,2.4c0,0,0.3,0.9,0.3,1
	c0,0.3-0.5,0.9-0.9,0.9c-0.7,0-0.8-0.4-1.1-1.7c-0.9-3.4-2.4-6.6-3.1-7.4c-0.1-0.1-0.8-0.6-0.8-0.7c0-0.4,1-0.9,1.5-0.9
	c0.6,0,0.8,0.6,1.2,1.3c0.2,0.7,1.2,3.6,1.5,4.1C114.3,77.8,114.9,76.2,116.4,74.5z"/>
<path class="st1" d="M133.6,70.9c-0.6-1-1.3-2.1-1.4-2.6c-0.2-1.1,0.9-1.9,2.2-2.2c3.2-0.7,7.8,1.2,8.1,2.2c0.1,0.5-0.7,1.4-1.1,1.5
	c-0.2,0.1-0.6-0.2-0.6-0.4c0-0.1,0-0.4,0-0.5c-0.2-0.8-3.6-2.4-6.1-1.8c-0.6,0.1-1,0.4-0.9,0.9c0.2,1,2.3,4.3,2.6,4.7
	c2.3,3.7,4.3,6.9,5,9.8c0.5,2.2,0.1,4.2-2.3,4.8c-3.9,0.9-10.1-4.3-10.6-6.5c-0.2-0.8,0.3-1.4,1-1.6c0,0,0.9-0.2,1,0.2
	c0.1,0.2-0.1,0.3-0.3,0.3c-0.5,0.1-0.9,0.3-0.8,0.9c0.3,1.3,3.4,3.4,4.2,3.9c1.7,1.1,3.5,2,5.3,1.6c0.8-0.2,1.7-0.7,1.1-3.1
	c-0.6-2.7-2.3-5.4-4.9-9.5L133.6,70.9z"/>
<path class="st1" d="M149.2,73.5c1.9,0,4.2,1.9,4.2,5.1c0,2.8-2.1,6.7-5.7,6.7c-2.8,0-4.3-2.7-4.3-5.6c0-3.4,2.1-6.2,3.9-6.2
	c0.4,0,0.5,0.2,0.7,0.3C148.2,73.7,148.7,73.5,149.2,73.5z M147.6,75.5c-0.1,0-0.2-0.1-0.3-0.1c-0.3-0.3-0.4-0.4-0.6-0.4
	c-0.6,0-1.8,1.6-1.8,4c0,3.3,1.8,4.8,3.4,4.8c1.7,0,3.7-2,3.7-4.7c0-2.6-1.5-4.8-3.6-4.6C148.3,75.1,147.9,75.5,147.6,75.5z"/>
<path class="st1" d="M158.3,85.1c-1.6,0-2.3-1.6-2.7-4.4c-0.4-3.1-0.5-6.5-0.5-8.7c0-0.4,0-4.1,0.4-4.6c0.2-0.3,1.1-0.6,1.5-0.6
	c0.2,0,0.4,0.1,0.4,0.4c0,0.3-0.3,1.6-0.4,1.9c-0.3,1.8-0.4,4.6-0.4,6c0,2,0.1,7.6,1.3,8.8c0.4,0.4,0.7,0.4,1.2,0.4
	c0.2,0,0.2,0.2,0.2,0.3C159.3,84.8,158.8,85.1,158.3,85.1z"/>
<path class="st1" d="M171,83.5c0.2,0,0.4,0.2,0.4,0.3c0,0.2-0.5,1.1-1.2,1.1c-1.2,0-1.5-1.8-1.9-5c-1.7,2.2-2.4,3.2-4.2,4.8
	c-0.9,0.8-1.2,0.9-1.6,0.9c-1.2,0-1.2-1.1-1.2-1.9c0-0.4,0.3-7.4,0.4-8.2c0-1,1.1-1.4,1.5-1.4c0.3,0,0.5,0.2,0.5,0.4
	c0,0.2-0.3,1.1-0.3,1.3c-0.3,1.3-0.7,4.7-0.7,7.5c0,0.2,0,0.7,0.4,0.7c0.3,0,2.1-2,2.3-2.1c0.9-1.1,2.7-3.2,2.7-4.3
	c0-2.4-0.2-2.7-0.2-3.5c0-0.6,1.1-1.1,1.5-1.1c0.3,0,0.4,0.2,0.4,0.5c0,0.2-0.1,1-0.1,1.2c-0.1,1-0.1,1.6-0.1,2.3
	c0,2.2,0.3,6.6,1.1,6.6L171,83.5z"/>
<path class="st1" d="M175,70.8c0-0.3-0.1-1.5-0.1-1.7c0-0.8,1.3-1.2,1.5-1.2c0.4,0,0.4,0.4,0.4,0.5l-0.3,2.5
	c-0.1,0.8-0.2,2.6-0.2,3.7c0.7-0.3,2.9-1.4,4.2-1.4c0.1,0,0.4,0,0.4,0.3c0,0.5-1.1,1.2-1.3,1.2c-0.1,0-0.4-0.1-0.5-0.1
	c-0.4,0-2,0.7-3,1.2c0,1.2,0,3,0.2,5.9c0.1,1.1,0.2,2.6,1.5,2.6c0.9,0,1.7-1.3,1.8-1.7c0.4-0.8,0.5-0.8,0.8-0.8
	c0.3,0,0.4,0.3,0.4,0.5c0,0.7-1.3,3.1-3.4,3.1c-1.9,0-2.1-2-2.3-3.4c-0.2-1.7-0.3-3.7-0.3-5.4c-0.4,0.2-2.6,1.7-2.7,1.7
	c-0.3,0-0.5-0.4-0.5-0.8c0-0.1,0-0.2,0.3-0.4c1.5-0.9,2.2-1.3,3-1.7V70.8z"/>
<path class="st1" d="M205.5,76.1c1.3-2.5,1.7-3.1,2.6-3.1c0.3,0,0.4,0.2,0.4,0.4c0,0.3-0.3,1.2-0.4,1.4c-0.2,1-0.3,2-0.3,2.9
	c0,0.6,0.1,6.7,2.3,6.7c0.4,0,0.7-0.2,1-0.4c0.4-0.3,0.5-0.3,0.6-0.3c0.2,0,0.4,0.2,0.4,0.4c0,0.6-1.2,1.2-2.2,1.2
	c-3,0-3.5-4.7-3.5-7.7c0-0.5,0-0.7,0.1-1.3c-0.7,1.2-3.1,5.8-4.2,8.3c-0.5,1.1-0.6,1.2-0.9,1.2c-0.1,0-1.1-0.4-1.1-0.8
	c0-0.7,0.8-9.8,0.9-10.1c0.1-0.3,1.4-0.8,1.4-0.8c0.1,0,0.3,0.1,0.3,0.5c0,0.2,0,0.4-0.4,2.2c-0.6,3.4-0.8,5.2-0.9,6.4
	C203.5,79.7,204.1,78.7,205.5,76.1z"/>
<path class="st1" d="M220.7,77c-0.3,0-0.3,0-0.8-0.9c-0.7-1.2-2.4-1.8-3.1-1.8c-0.1,0-0.4,0-0.4,0.3c0,0.5,2.2,3.9,2.7,4.8
	c2.1,3,2.5,3.5,2.5,4.5c0,1.1-0.9,2-2.5,2c-3.2,0-6.5-2.5-6.5-4.5c0-0.9,0.7-1.3,1.1-1.3c0.3,0,0.4,0.2,0.4,0.4c0,0.2-0.3,0.9-0.3,1
	c0,1.6,3.5,3.4,5.3,3.4c0.9,0,1.1-0.4,1.1-0.7c0-0.6-1.7-3.1-2.3-4c-2.6-3.8-3.3-4.8-3.3-5.8c0-0.7,0.4-1.1,1.5-1.1
	c2.6,0,5.2,1.8,5.4,3C221.7,76.7,221,77,220.7,77z"/>
<g>
	<path class="st1" d="M224.1,70c1.5,0,2.6,1.1,2.6,2.6c0,1.5-1.2,2.6-2.6,2.6c-1.5,0-2.7-1.1-2.7-2.6C221.4,71.2,222.6,70,224.1,70
		L224.1,70z M224.1,70.5c-1.2,0-2.1,1-2.1,2.1c0,1.2,0.9,2.1,2.1,2.1c1.2,0,2-0.9,2-2.1C226.1,71.4,225.3,70.5,224.1,70.5
		L224.1,70.5z M223.6,74h-0.5v-2.7c0.3,0,0.6-0.1,0.9-0.1c0.5,0,0.7,0.1,0.9,0.2c0.2,0.1,0.3,0.3,0.3,0.6c0,0.3-0.2,0.6-0.5,0.7v0
		c0.2,0.1,0.4,0.3,0.5,0.7c0.1,0.4,0.1,0.6,0.2,0.7h-0.5c-0.1-0.1-0.1-0.3-0.2-0.7c-0.1-0.3-0.2-0.4-0.6-0.4h-0.3V74z M223.6,72.5
		h0.3c0.4,0,0.7-0.1,0.7-0.4c0-0.3-0.2-0.4-0.7-0.4c-0.2,0-0.3,0-0.4,0V72.5z"/>
</g>
</svg>
