<?xml version="1.0" encoding="utf-8"?>
<!-- Generator: Adobe Illustrator 19.1.1, SVG Export Plug-In . SVG Version: 6.00 Build 0)  -->
<svg version="1.1" id="Layer_1" xmlns="http://www.w3.org/2000/svg" xmlns:xlink="http://www.w3.org/1999/xlink" x="0px" y="0px"
	 viewBox="0 0 40.8 40.3" style="enable-background:new 0 0 40.8 40.3;" xml:space="preserve">
<style type="text/css">
	.st0{fill:#FFFFFF;}
</style>
<g>
	<polygon class="st0" points="18,23.3 23.6,20 18,16.7 	"/>
	<path class="st0" d="M20.3,3c-9.4,0-17,7.6-17,17c0,9.4,7.6,17,17,17c9.4,0,17-7.6,17-17C37.3,10.6,29.7,3,20.3,3z M28.8,23
		c0,2.9-2.9,2.9-2.9,2.9H14.7c-2.9,0-2.9-2.9-2.9-2.9V17c0-2.9,2.9-2.9,2.9-2.9h11.1c2.9,0,2.9,2.9,2.9,2.9V23z"/>
</g>
</svg>
