<svg id="Layer_1" xmlns="http://www.w3.org/2000/svg" viewBox="0 0 231 99"><style>.Arched_x0020_Green{fill:url(#SVGID_1_);stroke:#FFFFFF;stroke-width:0.25;stroke-miterlimit:1;} .st0{fill-rule:evenodd;clip-rule:evenodd;fill:#0063A6;} .st1{fill:#0063A6;} .st2{fill:#28A34C;} .st3{fill-rule:evenodd;clip-rule:evenodd;fill:#28A34C;}</style><linearGradient id="SVGID_1_" gradientUnits="userSpaceOnUse" x1="-227" y1="394.281" x2="-226.293" y2="393.574"><stop offset="0" stop-color="#20AC4B"/><stop offset=".983" stop-color="#19361A"/></linearGradient><path class="st0" d="M107.6 28.8L114 41h3.4L99.2 6.2H96L77.8 41h3.4l6.2-12.2h20.2zm-19-2.1L95 14.3c1.1-2.1 1.8-3.6 2.5-5.4h.1c.7 1.7 1.3 3.2 2.5 5.5l6.4 12.2H88.6v.1z"/><path class="st1" d="M125.2 41V18.3h9.5v-2h-9.5V15c0-5 1.4-9.4 8-9.4 2.1 0 3.5.4 4.5.8l1.1-2c-1-.5-3-.9-5.3-.9-2.9 0-5.6.8-7.6 2.2-2.7 2-3.9 5.2-3.9 9.4v1.2h-5v2h4.9V41h3.3zM143 11.6v4.7h-5.9v2h5.9v15.5c0 2.3.5 4.6 2.1 6 1.3 1.2 3.4 1.9 6 1.9 2.1 0 3.8-.3 5-.7l-.4-2c-.9.3-2.3.5-4.2.5-4 0-5.2-2.3-5.2-5.4V18.3h10.2v-2h-10.2v-5.5l-3.3.8z"/><path class="st0" d="M172.3 41.6c7.8 0 17.2-4 17.2-13.3 0-7.1-6.5-12.7-16.8-12.7-9 0-17 5-17 13.3 0 7.3 6.9 12.7 16.6 12.7zm0-2c-6.9 0-13.4-3.9-13.4-10.8 0-5.8 4.6-11 13.7-11 9.5 0 13.5 6.1 13.5 10.8.1 7-6.7 11-13.8 11z"/><path class="st1" d="M193.6 41h3.3V25.9c0-.8.3-1.7.5-2.2 1.5-3.1 5.8-5.9 10.9-5.9 7.4 0 10.1 4.3 10.1 9.1V41h3.3V26.9c0-10.3-9.6-11.3-12.5-11.3-5.9 0-10.5 2.5-12.4 5.6h-.1l-.3-5h-3.1c.2 2 .3 4 .3 6V41zM76.5 46.9h145.4v2.9H76.5z"/><path class="st2" d="M82.4 57.9c-.4.1-1.1.2-1.8.2-1.9 0-2.9-.9-2.9-2 0-1.3 1.2-2 3-2 .7 0 1.3.1 1.7.2l.3-.8c-.3-.1-1.1-.3-2.1-.3-2.6 0-4.4 1.2-4.4 2.9s1.6 2.8 4.2 2.8c1.1 0 1.9-.2 2.2-.3l-.2-.7zM96.9 53.4v5.5h1.5v-2.4h3.6v2.4h1.4v-5.5H102v2.2h-3.6v-2.2h-1.5zM122.7 55.6h-3.2v-1.4h3.4v-.8h-4.8v5.5h5v-.8h-3.6v-1.6h3.2v-.9zM144.4 58.9h1.4l-.4-5.5h-2l-1.2 2.2c-.3.6-.6 1.3-.8 1.9-.2-.6-.5-1.3-.7-1.9l-1.1-2.2h-2l-.5 5.5h1.4l.2-2.3c.1-.8.1-1.7.1-2.5.2.7.5 1.5.8 2.3l1.1 2.4h1.1l1.2-2.4c.4-.8.7-1.5 1-2.2 0 .8.1 1.7.1 2.4l.3 2.3zM160.3 53.4v5.5h1.4v-5.5h-1.4zM182.2 57.9c-.4.1-1.1.2-1.8.2-1.9 0-2.9-.9-2.9-2 0-1.3 1.2-2 3-2 .7 0 1.3.1 1.7.2l.3-.8c-.3-.1-1.1-.3-2.1-.3-2.6 0-4.4 1.2-4.4 2.9s1.6 2.8 4.2 2.8c1.1 0 1.9-.2 2.2-.3l-.2-.7z"/><path class="st3" d="M201.1 57.3l.8 1.6h1.6l-2.7-5.5h-1.9l-2.7 5.5h1.5l.7-1.6h2.7zm-2.5-.8l.7-1.4c.1-.3.3-.7.4-1 .1.3.3.6.4 1l.7 1.4h-2.2z"/><path class="st2" d="M217.5 58.9h4.9V58h-3.5v-4.6h-1.4v5.5z"/><path class="st1" d="M3.5 38c0-18.4 14.9-33.4 33.4-33.4 16.7 0 30.5 12.2 33 28.2l-22.1-22L6.6 52c-2-4.3-3.1-9-3.1-14z"/><path class="st2" d="M70.1 41.2l-44.7.1 22.4-22.4 22.3 22.3z"/><path class="st1" d="M224.1 15.6c1.5 0 2.6 1.1 2.6 2.6s-1.2 2.6-2.6 2.6c-1.5 0-2.7-1.1-2.7-2.6s1.2-2.6 2.7-2.6zm0 .4c-1.2 0-2.1 1-2.1 2.1 0 1.2.9 2.1 2.1 2.1 1.2 0 2-.9 2-2.1 0-1.1-.8-2.1-2-2.1zm-.5 3.6h-.5v-2.7c.3 0 .6-.1.9-.1.5 0 .7.1.9.2.2.1.3.3.3.6s-.2.6-.5.7c.2.1.4.3.5.7.1.4.1.6.2.7h-.5c-.1-.1-.1-.3-.2-.7-.1-.3-.2-.4-.6-.4h-.3v1zm0-1.5h.3c.4 0 .7-.1.7-.4 0-.3-.2-.4-.7-.4h-.4v.8zM5.7 69.3c-.3.1-.4.2-.7.1-.3-.1-.4-.8-.4-.9.1-.3.3-.5.6-.6 1-.5 2.7-1.2 4.7-1.8 3.5-1 6.3-.9 7.7-.9.7 0 4.8.2 4.7 2.6-.1 2.2-2.9 5.1-6.3 7.1-3.5 2.1-5.4 2.2-7.5 2.4-.2 2.9.1 5.5.1 5.7.1.7.3 1.9 1.1 1.9h.4c.3 0 .5.1.5.3 0 .5 0 .9-1.2.9-2-.1-2.3-1.9-2.5-3.5-.2-1.4-.1-4.3-.1-5.8.1-2.9.6-5.8.9-8.7-.1 0-1.8 1.1-2 1.2zm9.5 4.7c1.7-1.1 5-3.9 5.1-5.9 0-1.1-.6-1.7-3.1-1.8-2-.1-5.6.6-7.6 1.1-.9 3.2-1.2 7.5-1.2 8.7 1.7-.1 3.8-.2 6.8-2.1zM23.5 72.5c0-.6 1.1-.8 1.4-.8.5 0 .5.3.5.6 0 3.6 1.1 10 2.4 11.5.1.1 1.1.7 1.1.8s-.2.6-.7.6c-1.6 0-2.2-1.6-2.4-2.2-.3-.7-1-2.8-1.4-5.5-1 1.5-5.6 7.5-7.6 7.5-.3 0-1.3-.2-1.3-1 0-2.8 5.2-10.1 8-10.1.1 0 .2 0 .3.1 0-.3-.3-1.4-.3-1.5zm-.3 2.6c-1.9 0-6.3 6.7-6.3 8.2 0 .1 0 .3.2.3 1 0 6.8-6.8 6.8-7.8 0-.4-.2-.7-.7-.7zM38.4 77.1c-.3 0-.3 0-.8-.9-.7-1.2-2.7-1.8-3.4-1.8-.1 0-.5 0-.5.3 0 .5 2.4 3.8 3 4.6 2.3 2.9 2.7 3.4 2.7 4.4 0 1.1-1 2-2.8 2-3.5 0-7.2-2.4-7.2-4.4 0-.9.7-1.3 1.2-1.3.3 0 .4.2.4.3 0 .2-.3.9-.3 1 0 1.6 3.9 3.3 5.9 3.3.9 0 1.2-.4 1.2-.7 0-.6-1.8-3-2.5-3.8-2.9-3.7-3.6-4.6-3.6-5.6 0-.7.4-1.1 1.6-1.1 2.8 0 5.8 1.7 6 2.9.2.4-.6.8-.9.8zM49.6 77.1c-.3 0-.3 0-.8-.9-.7-1.2-2.7-1.8-3.3-1.8-.1 0-.5 0-.5.3 0 .5 2.4 3.8 3 4.6 2.3 2.9 2.7 3.4 2.7 4.3 0 1.1-1 1.9-2.8 1.9-3.4 0-7.1-2.4-7.1-4.4 0-.9.7-1.3 1.2-1.3.3 0 .4.2.4.3 0 .2-.3.9-.3 1 0 1.6 3.8 3.2 5.8 3.2.9 0 1.2-.4 1.2-.6 0-.6-1.8-3-2.5-3.8-2.9-3.6-3.6-4.6-3.6-5.6 0-.6.4-1.1 1.6-1.1 2.8 0 5.7 1.7 5.9 2.9.1.7-.6 1-.9 1zM56.4 84.3c.8.1.8.1.8.4 0 .5-.9.8-1.4.8-1.4 0-1.7-1.5-1.8-2.2-.3-1.5-.5-4.2-.5-5.7 0-.7 0-2.9.5-3.3.2-.2.9-.6 1.4-.6.3 0 .5.2.5.4s-.3 1.1-.4 1.2c-.2.8-.4 1.9-.4 3.9-.1 1.2 0 4.9 1.3 5.1zm-.8-14c0 .1.1.4.1.5 0 .2-.2.4-.7.4-.7 0-.9-.2-.9-3.2 0-.5.4-.9 1.5-.9.2 0 .4.1.4.3 0 .3-.2.7-.3 1.1-.1.5-.1.7-.1 1.1-.1.1-.1.4 0 .7zM64.2 73.6c2.1 0 4.5 1.9 4.5 4.9 0 2.7-2.3 6.5-6.1 6.5-3 0-4.6-2.7-4.6-5.4 0-3.3 2.3-6 4.3-6 .4 0 .6.2.7.3.1-.1.6-.3 1.2-.3zm-1.8 2c-.1 0-.2-.1-.3-.1-.3-.3-.4-.3-.7-.3-.6 0-1.9 1.6-1.9 3.9 0 3.2 2 4.7 3.6 4.7 1.8 0 4-1.9 4-4.6 0-2.5-1.6-4.7-3.9-4.4 0 .4-.4.8-.8.8zM76.1 76c1.5-2.5 1.8-3.1 2.9-3.1.3 0 .5.2.5.4 0 .3-.3 1.2-.4 1.4-.2.9-.3 2-.3 2.8 0 .6.1 6.5 2.5 6.5.4 0 .8-.2 1.1-.4.4-.3.5-.3.6-.3.3 0 .4.2.4.4 0 .6-1.3 1.2-2.4 1.2-3.3 0-3.8-4.6-3.8-7.6 0-.5 0-.7.1-1.2-.7 1.2-3.4 5.7-4.6 8.1-.6 1.1-.6 1.2-.9 1.2-.1 0-1.2-.4-1.2-.8 0-.7.8-9.6 1-9.9.2-.3 1.5-.8 1.6-.8.1 0 .3.1.3.4 0 .2-.1.4-.4 2.1-.6 3.4-.9 5.1-1 6.3 1.8-3.1 2.4-4.2 4-6.7zM186.3 84.3c.8.1.8.1.8.4 0 .5-.9.8-1.4.8-1.4 0-1.7-1.5-1.8-2.2-.3-1.5-.4-4.2-.4-5.7 0-.7 0-2.9.4-3.3.2-.2.9-.6 1.4-.6.3 0 .5.2.5.4s-.3 1.1-.4 1.2c-.2.8-.4 1.9-.4 3.9-.1 1.2 0 4.9 1.3 5.1zm-.8-14c0 .1.1.4.1.5 0 .2-.2.4-.7.4-.8 0-1-.2-1-3.2 0-.5.3-.9 1.5-.9.2 0 .4.1.4.3 0 .3-.2.7-.3 1.1-.1.5-.1.7-.1 1.1 0 .1 0 .4.1.7zM194.1 73.6c2.1 0 4.5 1.9 4.5 4.9 0 2.7-2.3 6.5-6.1 6.5-3 0-4.6-2.7-4.6-5.4 0-3.3 2.3-6 4.3-6 .4 0 .6.2.7.3.1-.1.6-.3 1.2-.3zm-1.8 2c-.1 0-.2-.1-.3-.1-.3-.3-.4-.3-.7-.3-.6 0-1.9 1.6-1.9 3.9 0 3.2 2 4.7 3.6 4.7 1.8 0 4-1.9 4-4.6 0-2.5-1.6-4.7-3.9-4.4 0 .4-.4.8-.8.8zM99.6 72.5c.1 0 .6 0 .6.2 0 .1-.1.5-.2.6-.1.1-1 .7-1.3.7-.1 0-.6-.2-.7-.2-.5 0-2.3.4-3.8 1.2.1 3.6.3 8.8.8 12 .7 4.3 1.9 5 2.6 5 .2 0 .9-.3 1-.3.2 0 .4.1.4.3 0 .3-.6.8-1.5.8-3.1 0-3.9-5.3-4.2-6.6-.6-3.7-.7-9.5-.7-10.6-.4.2-2.7 1.5-2.8 1.5-.3 0-.7-.4-.7-.6 0-.3.1-.3 3.5-2.1 0-2.6 0-5.4 1.1-7.7.4-.9 1.2-2.3 2.9-2.3.2 0 1 .1 1 .7 0 .7-.6 1.2-.8 1.2-.1 0-.4-.2-.5-.2-.6 0-2.1 1.7-2.1 7.7 1.6-.7 3.9-1.3 5.4-1.3z"/><path class="st1" d="M104.7 73.5c1.9 0 4.2 1.9 4.2 5 0 2.8-2.1 6.7-5.6 6.7-2.8 0-4.2-2.7-4.2-5.5 0-3.4 2.1-6.1 3.9-6.1.4 0 .5.2.7.3 0-.1.4-.4 1-.4zm-1.7 2.1c-.1 0-.2-.1-.3-.1-.3-.3-.4-.4-.6-.4-.6 0-1.8 1.6-1.8 4 0 3.2 1.8 4.8 3.3 4.8 1.7 0 3.7-2 3.7-4.7 0-2.6-1.4-4.8-3.6-4.5 0 .4-.3.9-.7.9zM116.4 74.5c.9-1.1 2.1-2 3.1-2s1.5.8 1.5 1.5-.6.8-.8.8c-.6 0-.8-.4-.9-.7-.1-.4-.1-.4-.3-.4-.2 0-1.1.5-2.3 2.2-1.6 2.3-1.8 4.8-1.8 5.1 0 .4.1 1.5.4 2.4 0 0 .3.9.3 1 0 .3-.5.9-.9.9-.7 0-.8-.4-1.1-1.7-.9-3.4-2.4-6.6-3.1-7.4-.1-.1-.8-.6-.8-.7 0-.4 1-.9 1.5-.9.6 0 .8.6 1.2 1.3.2.7 1.2 3.6 1.5 4.1.4-2.2 1-3.8 2.5-5.5zM133.6 70.9c-.6-1-1.3-2.1-1.4-2.6-.2-1.1.9-1.9 2.2-2.2 3.2-.7 7.8 1.2 8.1 2.2.1.5-.7 1.4-1.1 1.5-.2.1-.6-.2-.6-.4v-.5c-.2-.8-3.6-2.4-6.1-1.8-.6.1-1 .4-.9.9.2 1 2.3 4.3 2.6 4.7 2.3 3.7 4.3 6.9 5 9.8.5 2.2.1 4.2-2.3 4.8-3.9.9-10.1-4.3-10.6-6.5-.2-.8.3-1.4 1-1.6 0 0 .9-.2 1 .2.1.2-.1.3-.3.3-.5.1-.9.3-.8.9.3 1.3 3.4 3.4 4.2 3.9 1.7 1.1 3.5 2 5.3 1.6.8-.2 1.7-.7 1.1-3.1-.6-2.7-2.3-5.4-4.9-9.5l-1.5-2.6zM149.2 73.5c1.9 0 4.2 1.9 4.2 5.1 0 2.8-2.1 6.7-5.7 6.7-2.8 0-4.3-2.7-4.3-5.6 0-3.4 2.1-6.2 3.9-6.2.4 0 .5.2.7.3.2-.1.7-.3 1.2-.3zm-1.6 2c-.1 0-.2-.1-.3-.1-.3-.3-.4-.4-.6-.4-.6 0-1.8 1.6-1.8 4 0 3.3 1.8 4.8 3.4 4.8 1.7 0 3.7-2 3.7-4.7 0-2.6-1.5-4.8-3.6-4.6-.1.6-.5 1-.8 1zM158.3 85.1c-1.6 0-2.3-1.6-2.7-4.4-.4-3.1-.5-6.5-.5-8.7 0-.4 0-4.1.4-4.6.2-.3 1.1-.6 1.5-.6.2 0 .4.1.4.4 0 .3-.3 1.6-.4 1.9-.3 1.8-.4 4.6-.4 6 0 2 .1 7.6 1.3 8.8.4.4.7.4 1.2.4.2 0 .2.2.2.3 0 .2-.5.5-1 .5zM171 83.5c.2 0 .4.2.4.3 0 .2-.5 1.1-1.2 1.1-1.2 0-1.5-1.8-1.9-5-1.7 2.2-2.4 3.2-4.2 4.8-.9.8-1.2.9-1.6.9-1.2 0-1.2-1.1-1.2-1.9 0-.4.3-7.4.4-8.2 0-1 1.1-1.4 1.5-1.4.3 0 .5.2.5.4s-.3 1.1-.3 1.3c-.3 1.3-.7 4.7-.7 7.5 0 .2 0 .7.4.7.3 0 2.1-2 2.3-2.1.9-1.1 2.7-3.2 2.7-4.3 0-2.4-.2-2.7-.2-3.5 0-.6 1.1-1.1 1.5-1.1.3 0 .4.2.4.5 0 .2-.1 1-.1 1.2-.1 1-.1 1.6-.1 2.3 0 2.2.3 6.6 1.1 6.6l.3-.1zM175 70.8c0-.3-.1-1.5-.1-1.7 0-.8 1.3-1.2 1.5-1.2.4 0 .4.4.4.5l-.3 2.5c-.1.8-.2 2.6-.2 3.7.7-.3 2.9-1.4 4.2-1.4.1 0 .4 0 .4.3 0 .5-1.1 1.2-1.3 1.2-.1 0-.4-.1-.5-.1-.4 0-2 .7-3 1.2 0 1.2 0 3 .2 5.9.1 1.1.2 2.6 1.5 2.6.9 0 1.7-1.3 1.8-1.7.4-.8.5-.8.8-.8.3 0 .4.3.4.5 0 .7-1.3 3.1-3.4 3.1-1.9 0-2.1-2-2.3-3.4-.2-1.7-.3-3.7-.3-5.4-.4.2-2.6 1.7-2.7 1.7-.3 0-.5-.4-.5-.8 0-.1 0-.2.3-.4 1.5-.9 2.2-1.3 3-1.7v-4.6zM205.5 76.1c1.3-2.5 1.7-3.1 2.6-3.1.3 0 .4.2.4.4 0 .3-.3 1.2-.4 1.4-.2 1-.3 2-.3 2.9 0 .6.1 6.7 2.3 6.7.4 0 .7-.2 1-.4.4-.3.5-.3.6-.3.2 0 .4.2.4.4 0 .6-1.2 1.2-2.2 1.2-3 0-3.5-4.7-3.5-7.7 0-.5 0-.7.1-1.3-.7 1.2-3.1 5.8-4.2 8.3-.5 1.1-.6 1.2-.9 1.2-.1 0-1.1-.4-1.1-.8 0-.7.8-9.8.9-10.1.1-.3 1.4-.8 1.4-.8.1 0 .3.1.3.5 0 .2 0 .4-.4 2.2-.6 3.4-.8 5.2-.9 6.4 1.9-3.5 2.5-4.5 3.9-7.1zM220.7 77c-.3 0-.3 0-.8-.9-.7-1.2-2.4-1.8-3.1-1.8-.1 0-.4 0-.4.3 0 .5 2.2 3.9 2.7 4.8 2.1 3 2.5 3.5 2.5 4.5 0 1.1-.9 2-2.5 2-3.2 0-6.5-2.5-6.5-4.5 0-.9.7-1.3 1.1-1.3.3 0 .4.2.4.4s-.3.9-.3 1c0 1.6 3.5 3.4 5.3 3.4.9 0 1.1-.4 1.1-.7 0-.6-1.7-3.1-2.3-4-2.6-3.8-3.3-4.8-3.3-5.8 0-.7.4-1.1 1.5-1.1 2.6 0 5.2 1.8 5.4 3 .2.4-.5.7-.8.7z"/><g><path class="st1" d="M224.1 70c1.5 0 2.6 1.1 2.6 2.6s-1.2 2.6-2.6 2.6c-1.5 0-2.7-1.1-2.7-2.6 0-1.4 1.2-2.6 2.7-2.6zm0 .5c-1.2 0-2.1 1-2.1 2.1 0 1.2.9 2.1 2.1 2.1 1.2 0 2-.9 2-2.1 0-1.2-.8-2.1-2-2.1zm-.5 3.5h-.5v-2.7c.3 0 .6-.1.9-.1.5 0 .7.1.9.2.2.1.3.3.3.6s-.2.6-.5.7c.2.1.4.3.5.7.1.4.1.6.2.7h-.5c-.1-.1-.1-.3-.2-.7-.1-.3-.2-.4-.6-.4h-.3v1zm0-1.5h.3c.4 0 .7-.1.7-.4 0-.3-.2-.4-.7-.4h-.4v.8z"/></g></svg>